<mxfile host="app.diagrams.net" modified="2024-01-07T08:50:40.109Z" agent="Mozilla/5.0 (Windows NT 10.0; Win64; x64) AppleWebKit/537.36 (KHTML, like Gecko) Chrome/120.0.0.0 Safari/537.36" etag="37ZTd4BmcR0Y_TtgbVfU" version="22.1.17" type="device">
  <diagram name="Page-1" id="nn8ObmKU6kz6V9rWtay7">
    <mxGraphModel dx="2344" dy="1234" grid="0" gridSize="10" guides="1" tooltips="1" connect="1" arrows="1" fold="1" page="1" pageScale="1" pageWidth="1700" pageHeight="1100" math="0" shadow="0">
      <root>
        <mxCell id="0" />
        <mxCell id="1" parent="0" />
        <mxCell id="APQHhnO86Q3MHc4O8zTS-1" value="Actor" style="shape=umlActor;verticalLabelPosition=bottom;verticalAlign=top;html=1;" vertex="1" parent="1">
          <mxGeometry x="176" y="412.5" width="100" height="180" as="geometry" />
        </mxCell>
        <mxCell id="APQHhnO86Q3MHc4O8zTS-2" value="" style="endArrow=none;html=1;rounded=0;entryX=0;entryY=0.582;entryDx=0;entryDy=0;entryPerimeter=0;exitX=0.5;exitY=0.599;exitDx=0;exitDy=0;exitPerimeter=0;" edge="1" parent="1" source="APQHhnO86Q3MHc4O8zTS-1" target="APQHhnO86Q3MHc4O8zTS-3">
          <mxGeometry width="50" height="50" relative="1" as="geometry">
            <mxPoint x="210" y="520" as="sourcePoint" />
            <mxPoint x="370" y="520" as="targetPoint" />
          </mxGeometry>
        </mxCell>
        <mxCell id="APQHhnO86Q3MHc4O8zTS-3" value="&lt;font style=&quot;font-size: 17px;&quot;&gt;Administrare Keycloak&amp;nbsp;&lt;/font&gt;" style="ellipse;whiteSpace=wrap;html=1;" vertex="1" parent="1">
          <mxGeometry x="360" y="470" width="220" height="90" as="geometry" />
        </mxCell>
        <mxCell id="APQHhnO86Q3MHc4O8zTS-4" value="&lt;font style=&quot;font-size: 19px;&quot;&gt;Login&lt;/font&gt;" style="ellipse;whiteSpace=wrap;html=1;" vertex="1" parent="1">
          <mxGeometry x="758" y="460" width="169" height="85" as="geometry" />
        </mxCell>
        <mxCell id="APQHhnO86Q3MHc4O8zTS-5" value="&lt;font style=&quot;font-size: 19px;&quot;&gt;&amp;lt;&amp;lt;include&amp;gt;&amp;gt;&lt;/font&gt;" style="endArrow=open;endSize=12;dashed=1;html=1;rounded=0;exitX=1;exitY=0.5;exitDx=0;exitDy=0;entryX=0.004;entryY=0.616;entryDx=0;entryDy=0;entryPerimeter=0;" edge="1" parent="1" source="APQHhnO86Q3MHc4O8zTS-3" target="APQHhnO86Q3MHc4O8zTS-4">
          <mxGeometry width="160" relative="1" as="geometry">
            <mxPoint x="710" y="514.5" as="sourcePoint" />
            <mxPoint x="870" y="514.5" as="targetPoint" />
          </mxGeometry>
        </mxCell>
      </root>
    </mxGraphModel>
  </diagram>
</mxfile>
